[Header]                  # Header keywords are followed by a single value
FileType htr              # single word string
DataType HTRS             # Hierarchical translations followed by rotations and Scale
FileVersion 1             # integer
NumSegments   22        # integer
NumFrames  5          # integer
DataFrameRate    60      # integer
EulerRotationOrder ZYX    # one word string
CalibrationUnits mm   # one word string
RotationUnits Degrees     # one word string
GlobalAxisofGravity Y        # character, X or Y or Z
BoneLengthAxis Y
ScaleFactor 1.0000
[SegmentNames&Hierarchy]
#CHILD         PARENT
LowerTorso	GLOBAL
MidTorso1	LowerTorso
MidTorso2	MidTorso1
UpperTorso	MidTorso2
Neck	UpperTorso
Head	Neck
LCollar	UpperTorso
LUpArm	LCollar
LLowArm	LUpArm
LHand	LLowArm
RCollar	UpperTorso
RUpArm	RCollar
RLowArm	RUpArm
RHand	RLowArm
RThigh	LowerTorso
RLowLeg	RThigh
RFoot	RLowLeg
RToe	RFoot
LThigh	LowerTorso
LLowLeg	LThigh
LFoot	LLowLeg
LToe	LFoot
[BasePosition]
#SegmentName Tx, Ty, Tz, Rx, Ry, Rz, BoneLength
LowerTorso	245.857281	950.546486	248.637529	3.098927	-0.002210	0.042162	59.711333	
MidTorso1	0.000000	59.711333	0.000000	12.937915	-0.002675	-0.030860	59.789096	
MidTorso2	0.000000	59.789096	0.000000	-8.588562	0.003459	0.011437	83.428957	
UpperTorso	0.000000	83.428957	0.000000	-7.932331	-0.001012	-0.030752	241.957510	
Neck	0.000000	241.957510	0.000000	-0.094097	0.000027	0.097203	231.829248	
Head	0.000000	231.829248	0.000000	90.077927	-0.000108	-0.089730	91.574582	
LCollar	6.813599	237.360039	0.023153	2.387721	-0.015547	-90.013255	183.371476	
LUpArm	0.000000	183.371476	0.000000	5.326590	-0.698152	6.338799	275.550262	
LLowArm	0.000000	275.550262	0.000000	0.023606	-0.000027	0.019344	209.826044	
LHand	0.000000	209.826044	0.000000	0.056212	0.000012	-0.012212	145.298309	
RCollar	-7.320367	237.102711	-0.039007	12.450709	0.004248	90.115141	167.861514	
RUpArm	0.000000	167.861514	0.000000	-6.122028	-0.820027	-2.646363	291.470253	
RLowArm	0.000000	291.470253	0.000000	0.000001	0.000000	-0.000274	217.757286	
RHand	0.000000	217.757286	0.000000	0.000373	0.000000	0.000511	137.536656	
RThigh	-124.450736	-52.205152	84.621319	5.924306	0.309605	177.207098	421.029795	
RLowLeg	0.000000	421.029795	0.000000	-15.759515	-0.017515	3.120486	365.105663	
RFoot	0.000000	365.105663	0.000000	55.897303	0.149984	-4.373210	148.323736	
RToe	0.000000	148.323736	0.000000	45.100933	2.167436	3.449341	115.306227	
LThigh	124.374466	-52.388373	84.621456	5.928259	-0.221338	-178.140447	426.796764	
LLowLeg	0.000000	426.796764	0.000000	-15.759694	0.017551	-3.120303	361.153822	
LFoot	0.000000	361.153822	0.000000	55.897848	-0.150027	4.373120	146.718976	
LToe	0.000000	146.718976	0.000000	45.100748	-2.167253	-3.449489	114.060784	
#Beginning of Data. Separated by tabs
[LowerTorso]
#Fr     Tx      Ty      Tz      Rx      Ry      Rz      SF
785	-115.460098	-40.074524	495.930603	5.852019	13.565502	-0.079605	1.000000	
786	-112.777153	-32.691849	518.045898	5.216253	14.298856	-1.389377	1.000000	
787	-109.714661	-28.160589	541.115417	4.013680	15.290070	-3.228269	1.000000	
788	-107.053123	-25.482012	565.692200	2.397978	16.825077	-6.255046	1.000000	
789	-104.290031	-27.990627	590.118896	-0.270715	18.947283	-8.831409	1.000000	
[MidTorso1]
#Fr     Tx      Ty      Tz      Rx      Ry      Rz      SF
785	0.000000	0.000000	0.000000	0.579149	6.168907	-4.502917	1.000000	
786	0.000000	0.000000	0.000000	0.088510	7.001336	-4.503037	1.000000	
787	0.000000	0.000000	0.000000	-0.392118	7.764088	-4.250810	1.000000	
788	0.000000	0.000000	0.000000	-1.166078	8.474742	-3.668617	1.000000	
789	0.000000	0.000000	0.000000	-1.367542	8.619838	-3.013024	1.000000	
[MidTorso2]
#Fr     Tx      Ty      Tz      Rx      Ry      Rz      SF
785	0.000000	0.000000	0.000000	0.614555	6.771457	-3.529336	1.000000	
786	0.000000	0.000000	0.000000	0.139825	7.594575	-3.403545	1.000000	
787	0.000000	0.000000	0.000000	-0.322507	8.311145	-3.038051	1.000000	
788	0.000000	0.000000	0.000000	-1.075994	8.926992	-2.353468	1.000000	
789	0.000000	0.000000	0.000000	-1.270531	8.972622	-1.682524	1.000000	
[UpperTorso]
#Fr     Tx      Ty      Tz      Rx      Ry      Rz      SF
785	0.000000	0.000000	0.000000	0.658918	7.193659	-2.557835	1.000000	
786	0.000000	0.000000	0.000000	0.199731	7.991201	-2.317833	1.000000	
787	0.000000	0.000000	0.000000	-0.246541	8.650144	-1.854802	1.000000	
788	0.000000	0.000000	0.000000	-0.984435	9.165129	-1.089497	1.000000	
789	0.000000	0.000000	0.000000	-1.176727	9.117623	-0.418332	1.000000	
[Neck]
#Fr     Tx      Ty      Tz      Rx      Ry      Rz      SF
785	0.000000	0.000000	0.000000	-10.009868	-16.200819	0.304551	1.000000	
786	0.000000	0.000000	0.000000	-9.052092	-18.798361	-0.383199	1.000000	
787	0.000000	0.000000	0.000000	-7.597879	-21.249599	-1.171318	1.000000	
788	0.000000	0.000000	0.000000	-5.105070	-24.037561	-1.669723	1.000000	
789	0.000000	0.000000	0.000000	-3.521806	-25.625694	-1.720830	1.000000	
[Head]
#Fr     Tx      Ty      Tz      Rx      Ry      Rz      SF
785	0.000000	0.000000	0.000000	4.178476	2.850308	0.406250	1.000000	
786	0.000000	0.000000	0.000000	5.194105	3.827519	0.541527	1.000000	
787	0.000000	0.000000	0.000000	6.033032	4.778236	0.677056	1.000000	
788	0.000000	0.000000	0.000000	7.296731	5.555431	0.797164	1.000000	
789	0.000000	0.000000	0.000000	6.916155	6.163375	0.782098	1.000000	
[LCollar]
#Fr     Tx      Ty      Tz      Rx      Ry      Rz      SF
785	0.000000	0.000000	0.000000	3.722783	0.899506	-13.563951	1.000000	
786	0.000000	0.000000	0.000000	2.290713	0.479806	-11.822728	1.000000	
787	0.000000	0.000000	0.000000	1.185220	0.211407	-10.110310	1.000000	
788	0.000000	0.000000	0.000000	2.298802	0.384923	-9.499857	1.000000	
789	0.000000	0.000000	0.000000	1.875190	0.280928	-8.516385	1.000000	
[LUpArm]
#Fr     Tx      Ty      Tz      Rx      Ry      Rz      SF
785	0.000000	0.000000	0.000000	-25.092302	20.733873	-69.841255	1.000000	
786	0.000000	0.000000	0.000000	-26.850378	20.752239	-69.666458	1.000000	
787	0.000000	0.000000	0.000000	-27.371380	20.712322	-68.729523	1.000000	
788	0.000000	0.000000	0.000000	-28.213570	20.389034	-67.147278	1.000000	
789	0.000000	0.000000	0.000000	-25.535736	21.045485	-64.502579	1.000000	
[LLowArm]
#Fr     Tx      Ty      Tz      Rx      Ry      Rz      SF
785	0.000000	0.000000	0.000000	115.681892	-0.011046	-0.017684	1.000000	
786	0.000000	0.000000	0.000000	116.377045	-0.010980	-0.017818	1.000000	
787	0.000000	0.000000	0.000000	117.591347	-0.010861	-0.018051	1.000000	
788	0.000000	0.000000	0.000000	117.766144	-0.010843	-0.018084	1.000000	
789	0.000000	0.000000	0.000000	118.700684	-0.010748	-0.018261	1.000000	
[LHand]
#Fr     Tx      Ty      Tz      Rx      Ry      Rz      SF
785	0.000000	0.000000	0.000000	19.303635	-3.686736	1.356363	1.000000	
786	0.000000	0.000000	0.000000	21.316166	-5.241321	0.565607	1.000000	
787	0.000000	0.000000	0.000000	23.669201	-7.816133	-1.072106	1.000000	
788	0.000000	0.000000	0.000000	18.135206	6.411792	-2.648291	1.000000	
789	0.000000	0.000000	0.000000	16.243279	11.062298	-5.791265	1.000000	
[RCollar]
#Fr     Tx      Ty      Tz      Rx      Ry      Rz      SF
785	0.000000	0.000000	0.000000	5.345150	-0.483849	5.157669	1.000000	
786	0.000000	0.000000	0.000000	6.439494	-0.166651	1.476390	1.000000	
787	0.000000	0.000000	0.000000	7.498398	0.209010	-1.587407	1.000000	
788	0.000000	0.000000	0.000000	7.120799	0.204737	-1.638312	1.000000	
789	0.000000	0.000000	0.000000	7.303789	0.285538	-2.226574	1.000000	
[RUpArm]
#Fr     Tx      Ty      Tz      Rx      Ry      Rz      SF
785	0.000000	0.000000	0.000000	27.540020	-9.611596	51.566410	1.000000	
786	0.000000	0.000000	0.000000	24.545187	-12.195398	54.095242	1.000000	
787	0.000000	0.000000	0.000000	20.922394	-14.573915	56.724659	1.000000	
788	0.000000	0.000000	0.000000	17.740759	-15.819576	57.193287	1.000000	
789	0.000000	0.000000	0.000000	14.799646	-17.221811	58.442818	1.000000	
[RLowArm]
#Fr     Tx      Ty      Tz      Rx      Ry      Rz      SF
785	0.000000	0.000000	0.000000	121.754456	0.000167	0.000230	1.000000	
786	0.000000	0.000000	0.000000	122.306511	0.000167	0.000231	1.000000	
787	0.000000	0.000000	0.000000	121.506210	0.000168	0.000229	1.000000	
788	0.000000	0.000000	0.000000	119.614479	0.000170	0.000224	1.000000	
789	0.000000	0.000000	0.000000	116.732697	0.000173	0.000217	1.000000	
[RHand]
#Fr     Tx      Ty      Tz      Rx      Ry      Rz      SF
785	0.000000	0.000000	0.000000	-1.878557	-7.227765	-13.493539	1.000000	
786	0.000000	0.000000	0.000000	-1.878489	-6.528906	-12.394335	1.000000	
787	0.000000	0.000000	0.000000	-1.709273	-4.310638	-11.415834	1.000000	
788	0.000000	0.000000	0.000000	0.022730	-1.346651	-11.280210	1.000000	
789	0.000000	0.000000	0.000000	0.477697	0.756732	-11.090755	1.000000	
[RThigh]
#Fr     Tx      Ty      Tz      Rx      Ry      Rz      SF
785	0.000000	0.000000	0.000000	-7.065966	6.615925	1.063935	1.000000	
786	0.000000	0.000000	0.000000	-6.489353	9.917166	0.733040	1.000000	
787	0.000000	0.000000	0.000000	-5.704687	13.216114	0.701589	1.000000	
788	0.000000	0.000000	0.000000	-4.631708	16.458515	2.038665	1.000000	
789	0.000000	0.000000	0.000000	-3.928931	19.891733	1.974544	1.000000	
[RLowLeg]
#Fr     Tx      Ty      Tz      Rx      Ry      Rz      SF
785	0.000000	0.000000	0.000000	-23.274462	0.000016	-0.000006	1.000000	
786	0.000000	0.000000	0.000000	-25.503649	0.000018	-0.000007	1.000000	
787	0.000000	0.000000	0.000000	-29.095949	0.000020	-0.000009	1.000000	
788	0.000000	0.000000	0.000000	-33.271141	0.000023	-0.000011	1.000000	
789	0.000000	0.000000	0.000000	-39.764511	0.000026	-0.000014	1.000000	
[RFoot]
#Fr     Tx      Ty      Tz      Rx      Ry      Rz      SF
785	0.000000	0.000000	0.000000	-1.148036	4.546155	2.354653	1.000000	
786	0.000000	0.000000	0.000000	-7.711027	4.993608	6.251159	1.000000	
787	0.000000	0.000000	0.000000	-14.459033	6.617531	10.304576	1.000000	
788	0.000000	0.000000	0.000000	-22.040712	7.659026	13.300035	1.000000	
789	0.000000	0.000000	0.000000	-27.500017	11.440682	17.647152	1.000000	
[RToe]
#Fr     Tx      Ty      Tz      Rx      Ry      Rz      SF
785	0.000000	0.000000	0.000000	10.421504	0.000004	0.000005	1.000000	
786	0.000000	0.000000	0.000000	10.178409	0.000004	0.000005	1.000000	
787	0.000000	0.000000	0.000000	10.015990	0.000004	0.000005	1.000000	
788	0.000000	0.000000	0.000000	8.266989	0.000003	0.000004	1.000000	
789	0.000000	0.000000	0.000000	8.474853	0.000003	0.000004	1.000000	
[LThigh]
#Fr     Tx      Ty      Tz      Rx      Ry      Rz      SF
785	0.000000	0.000000	0.000000	38.605976	-31.045870	-23.995136	1.000000	
786	0.000000	0.000000	0.000000	38.969437	-34.179188	-26.242785	1.000000	
787	0.000000	0.000000	0.000000	39.298088	-38.429005	-28.598278	1.000000	
788	0.000000	0.000000	0.000000	38.287476	-38.095539	-26.257380	1.000000	
789	0.000000	0.000000	0.000000	36.044048	-39.456303	-24.723421	1.000000	
[LLowLeg]
#Fr     Tx      Ty      Tz      Rx      Ry      Rz      SF
785	0.000000	0.000000	0.000000	-30.557688	0.000014	-0.000004	1.000000	
786	0.000000	0.000000	0.000000	-23.255680	0.000011	-0.000002	1.000000	
787	0.000000	0.000000	0.000000	-17.427118	0.000008	-0.000001	1.000000	
788	0.000000	0.000000	0.000000	-16.934959	0.000008	-0.000001	1.000000	
789	0.000000	0.000000	0.000000	-15.939919	0.000008	-0.000001	1.000000	
[LFoot]
#Fr     Tx      Ty      Tz      Rx      Ry      Rz      SF
785	0.000000	0.000000	0.000000	5.476197	-11.310607	3.595291	1.000000	
786	0.000000	0.000000	0.000000	-0.999460	-9.977692	2.215353	1.000000	
787	0.000000	0.000000	0.000000	-7.622834	-5.707690	2.333569	1.000000	
788	0.000000	0.000000	0.000000	-4.705469	-10.450768	1.899980	1.000000	
789	0.000000	0.000000	0.000000	-6.626433	-3.815303	5.719920	1.000000	
[LToe]
#Fr     Tx      Ty      Tz      Rx      Ry      Rz      SF
785	0.000000	0.000000	0.000000	6.201537	0.000024	0.000000	1.000000	
786	0.000000	0.000000	0.000000	5.340177	0.000021	0.000000	1.000000	
787	0.000000	0.000000	0.000000	4.739760	0.000018	0.000000	1.000000	
788	0.000000	0.000000	0.000000	-5.279784	-0.000020	0.000002	1.000000	
789	0.000000	0.000000	0.000000	-4.166594	-0.000016	0.000001	1.000000	
[EndOfFile]
